<svg xmlns:dc="http://purl.org/dc/elements/1.1/" xmlns:cc="http://creativecommons.org/ns#" xmlns:rdf="http://www.w3.org/1999/02/22-rdf-syntax-ns#" xmlns:svg="http://www.w3.org/2000/svg" xmlns="http://www.w3.org/2000/svg" xml:space="preserve" id="svg2" version="1.1" viewBox="24.2 16.96 179.59 56.64"><metadata id="metadata8"><rdf:RDF><cc:Work rdf:about=""><dc:format>image/svg+xml</dc:format><dc:type rdf:resource="http://purl.org/dc/dcmitype/StillImage"/></cc:Work></rdf:RDF></metadata><defs id="defs6"/><g transform="matrix(1.3333333,0,0,-1.3333333,0,84.44)" id="g10"><g transform="scale(0.1)" id="g12"><path id="path14" style="fill:#f8c41d;fill-opacity:1;fill-rule:nonzero;stroke:none" d="m 326.395,305.688 c 19.421,0 37.734,9.007 49.148,24.019 8.105,10.715 23.418,12.91 34.129,4.805 10.711,-8.106 12.812,-23.418 4.703,-34.129 -20.617,-27.129 -53.445,-43.34 -87.98,-43.34 -60.25,0 -109.297,47.945 -109.297,106.797 0,58.953 49.047,106.898 109.297,106.898 34.632,0 67.562,-16.32 88.082,-43.644 8.109,-10.707 5.906,-25.922 -4.805,-34.028 -10.711,-8.007 -25.922,-5.906 -34.031,4.801 -11.407,15.117 -29.825,24.223 -49.246,24.223 -33.426,0 -60.653,-26.121 -60.653,-58.25 0,-32.031 27.227,-58.152 60.653,-58.152 z m -2.098,200.378 c -78.871,0 -142.832,-61.351 -142.832,-137.023 v -177.16 c 0,-15.012 12.715,-27.223 28.426,-27.223 h 0.3 c 15.715,0 28.329,12.113 28.329,27.223 v 8.41 c 0,3.301 0.699,6.605 1.8,9.609 4.102,10.411 14.512,17.715 26.723,17.715 h 0.199 c 15.817,0 28.528,-12.211 28.528,-27.324 v -91.684 c 0,-15.1168 12.71,-27.3238 28.324,-27.3238 h 0.5 c 15.515,0 28.226,12.207 28.226,27.3238 v 62.157 c 0,5.507 1.801,10.707 4.703,14.91 5.106,7.41 13.915,12.414 23.825,12.414 h 0.199 c 3.203,0 6.004,-0.402 8.808,-1.402 11.11,-3.403 19.016,-13.211 19.618,-24.719 v -21.52 c 0,-7.609 3.101,-14.613 8.308,-19.422 5.106,-5.004 12.41,-8.004 20.317,-8.004 15.613,0 28.523,12.211 28.523,27.426 v 218.594 c 0,75.672 -63.953,137.023 -142.824,137.023"/><path id="path16" style="fill:#213363;fill-opacity:1;fill-rule:nonzero;stroke:none" d="m 414.375,300.383 c -20.617,-27.129 -53.445,-43.34 -87.98,-43.34 -60.25,0 -109.297,47.945 -109.297,106.797 0,58.953 49.047,106.898 109.297,106.898 34.632,0 67.562,-16.32 88.082,-43.644 8.109,-10.707 5.906,-25.922 -4.805,-34.028 -10.711,-8.007 -25.922,-5.906 -34.031,4.801 -11.407,15.117 -29.825,24.223 -49.246,24.223 -33.426,0 -60.653,-26.121 -60.653,-58.25 0,-32.031 27.227,-58.152 60.653,-58.152 19.421,0 37.734,9.007 49.148,24.019 8.105,10.715 23.418,12.91 34.129,4.805 10.711,-8.106 12.812,-23.418 4.703,-34.129"/><path id="path18" style="fill:#213363;fill-opacity:1;fill-rule:nonzero;stroke:none" d="m 641.543,437.594 c -9.602,4.41 -20.168,6.648 -31.41,6.648 -14.953,0 -28.367,-3.449 -39.875,-10.254 -11.504,-6.804 -20.68,-16.363 -27.274,-28.402 -6.55,-11.969 -9.875,-25.746 -9.875,-40.961 0,-14.918 3.43,-28.516 10.188,-40.414 6.769,-11.918 16.191,-21.488 28.012,-28.445 11.836,-6.969 25.421,-10.5 40.382,-10.5 20.727,0 38.243,6.523 52.043,19.367 3.981,3.676 5.821,8.512 5.184,13.648 -0.586,4.625 -2.914,8.731 -7.027,12.293 -3.52,2.93 -7.797,4.336 -12.36,4.031 -4.312,-0.277 -8.355,-2.011 -12.047,-5.179 -3.226,-2.805 -6.773,-4.785 -10.839,-6.047 -4.29,-1.328 -9.321,-2 -14.954,-2 -8.043,0 -14.945,1.812 -21.089,5.543 -6.184,3.758 -10.868,8.73 -14.329,15.215 -3.472,6.5 -5.23,14.066 -5.23,22.488 0,8.973 1.687,16.781 5.02,23.219 3.296,6.375 7.769,11.246 13.671,14.894 5.883,3.629 12.559,5.395 20.399,5.395 11.461,0 20.82,-4.074 28.406,-12.223 3.191,-3.726 7.07,-6.039 11.531,-6.871 4.813,-0.914 9.34,0.102 12.914,2.781 4.485,3.168 7.27,7.118 8.289,11.746 1.114,5.114 -0.402,10.227 -4.054,14.164 -7.43,8.75 -16.067,15.434 -25.676,19.864"/><path id="path20" style="fill:#213363;fill-opacity:1;fill-rule:nonzero;stroke:none" d="m 801.012,437.91 c -3.621,-3.625 -5.539,-8.398 -5.539,-13.801 v -74.812 c 0,-5.059 -1.383,-9.484 -4.235,-13.527 -3.043,-4.317 -7,-7.668 -12.101,-10.254 -5.071,-2.578 -11.063,-3.879 -17.821,-3.879 -6.961,0 -13.242,1.359 -18.671,4.035 -5.211,2.57 -9.239,6.414 -12.325,11.754 -3.129,5.398 -4.718,12.543 -4.718,21.222 v 65.461 c 0,5.239 -1.961,9.969 -5.672,13.672 -7.305,7.317 -20.075,7.555 -27.621,0.004 -3.715,-3.711 -5.676,-8.441 -5.676,-13.676 v -65.461 c 0,-15.421 3.113,-28.796 9.258,-39.73 6.218,-11.082 14.816,-19.613 25.558,-25.371 10.567,-5.668 22.668,-8.543 35.969,-8.543 12.613,0 24.195,2.789 34.422,8.289 1.965,1.055 3.855,2.191 5.668,3.406 0.887,-1.777 2.058,-3.402 3.504,-4.847 7.242,-7.254 20.359,-7.266 27.625,0 3.629,3.625 5.547,8.398 5.547,13.804 v 118.453 c 0,5.399 -1.918,10.168 -5.551,13.813 -7.266,7.254 -20.363,7.25 -27.621,-0.012"/><path id="path22" style="fill:#213363;fill-opacity:1;fill-rule:nonzero;stroke:none" d="m 952.691,373.25 c -8.273,4.371 -19.031,7.754 -32.898,10.344 -8.762,1.621 -15.48,3.426 -19.973,5.363 -5.054,2.18 -6.664,3.938 -7.129,4.594 -0.941,1.351 -1.382,2.89 -1.382,4.844 0,1.851 0.527,4.05 4.449,6.293 4.297,2.453 10.008,3.699 16.976,3.699 6.075,0 11.422,-0.782 15.903,-2.324 4.191,-1.442 7.953,-3.934 11.394,-7.516 3.399,-3.66 7.688,-5.914 12.754,-6.695 5.121,-0.782 9.793,0.066 14.465,2.906 5.434,3.988 6.957,8.89 7.277,12.293 0.313,3.332 -0.257,8.394 -4.547,13.332 -5.937,7.523 -13.902,13.469 -23.667,17.672 -9.551,4.105 -20.676,6.187 -33.063,6.187 -9.809,0 -19.25,-1.586 -28.062,-4.715 -9.254,-3.281 -16.872,-8.386 -22.645,-15.164 -6.082,-7.152 -9.168,-16.152 -9.168,-26.75 0,-12.07 4.879,-22.429 14.496,-30.785 9.059,-7.883 22.692,-13.445 41.824,-17.043 15.328,-2.555 22.157,-5.711 25.176,-7.906 4.438,-3.219 5.004,-6.195 5.008,-8.195 -0.063,-1.957 -0.668,-4.911 -5.215,-8.012 -2.867,-1.957 -8.824,-4.293 -20.891,-4.293 -6.953,0 -13.382,1.207 -19.109,3.586 -5.621,2.336 -9.848,5.031 -12.414,7.855 -3.273,3.817 -7.629,6.133 -12.605,6.696 -4.973,0.55 -9.973,-0.95 -14.575,-4.473 -4.257,-3.461 -6.808,-7.953 -7.363,-12.98 -0.574,-5.165 1.02,-10.09 4.828,-14.473 6.692,-7.086 15.817,-12.668 27.117,-16.59 10.942,-3.805 22.684,-5.734 34.903,-5.734 12.75,0 23.886,2.043 33.097,6.074 9.543,4.176 17.012,10.058 22.196,17.473 5.277,7.558 7.957,16.199 7.957,25.675 0,8.102 -2.028,15.524 -6.028,22.063 -3.98,6.484 -10.398,12.101 -19.086,16.699"/><path id="path24" style="fill:#213363;fill-opacity:1;fill-rule:nonzero;stroke:none" d="m 1069.94,324.754 h -8.05 c -4.43,0 -7.84,1.578 -10.76,4.965 -3.16,3.664 -4.69,8.367 -4.69,14.383 v 58.574 h 17.53 c 4.94,0 9.37,1.66 12.8,4.804 3.61,3.313 5.51,7.719 5.51,12.735 0,5.176 -1.9,9.664 -5.52,12.996 -3.43,3.141 -7.86,4.801 -12.79,4.801 h -17.53 v 31.035 c 0,5.398 -1.92,10.176 -5.56,13.812 -7.3,7.293 -20.52,7.239 -27.58,-0.109 -3.48,-3.617 -5.32,-8.352 -5.32,-13.703 v -31.035 h -6.62 c -4.938,0 -9.364,-1.664 -12.797,-4.813 -3.61,-3.312 -5.512,-7.804 -5.512,-12.984 0,-5.024 1.906,-9.43 5.512,-12.735 3.425,-3.144 7.851,-4.804 12.797,-4.804 h 6.62 v -58.574 c 0,-10.879 2.3,-20.735 6.83,-29.305 4.59,-8.676 11.07,-15.652 19.27,-20.75 8.26,-5.137 17.61,-7.746 27.81,-7.746 h 4.93 c 5.8,0 10.7,1.695 14.58,5.047 4.15,3.574 6.34,8.433 6.34,14.047 0,5.304 -1.63,9.839 -4.85,13.488 -3.41,3.84 -7.88,5.871 -12.95,5.871"/><path id="path26" style="fill:#213363;fill-opacity:1;fill-rule:nonzero;stroke:none" d="m 1205.03,342.352 c -3.65,-6.614 -8.43,-11.661 -14.64,-15.426 -6.14,-3.735 -13.04,-5.547 -21.09,-5.547 -7.72,0 -14.56,1.824 -20.89,5.582 -6.36,3.766 -11.21,8.801 -14.83,15.391 -3.61,6.554 -5.45,14.046 -5.45,22.273 0,8.391 1.84,15.973 5.45,22.531 3.63,6.59 8.48,11.625 14.83,15.387 6.33,3.758 13.17,5.59 20.89,5.59 8.05,0 14.94,-1.817 21.09,-5.551 6.2,-3.758 10.99,-8.809 14.64,-15.422 3.61,-6.57 5.44,-14.148 5.44,-22.535 0,-8.223 -1.83,-15.715 -5.44,-22.273 z m 32.89,62.871 c -6.93,11.972 -16.43,21.562 -28.24,28.519 -11.84,6.965 -25.43,10.5 -40.38,10.5 -14.77,0 -28.3,-3.527 -40.23,-10.492 -11.88,-6.945 -21.43,-16.492 -28.38,-28.375 -6.96,-11.926 -10.49,-25.637 -10.49,-40.75 0,-14.859 3.27,-28.457 9.72,-40.402 6.49,-12.028 15.51,-21.621 26.82,-28.524 11.35,-6.922 24.36,-10.433 38.67,-10.433 13.96,0 26.66,3.418 37.75,10.168 2.48,1.515 4.86,3.16 7.13,4.937 0.82,-3.351 2.49,-6.328 4.94,-8.777 7.21,-7.227 20.23,-7.262 27.65,-0.11 3.78,3.637 5.78,8.45 5.78,13.911 v 64.347 l -0.2,0.074 c -0.86,12.922 -4.4,24.813 -10.54,35.407"/><path id="path28" style="fill:#213363;fill-opacity:1;fill-rule:nonzero;stroke:none" d="m 1372.73,419.848 c 2.06,7.668 -1.07,14.734 -8.59,19.39 -6.01,3.719 -14.29,5.524 -25.32,5.524 -11.47,0 -22.15,-2.774 -31.73,-8.25 -2.18,-1.242 -4.26,-2.594 -6.25,-4.051 -0.86,2.129 -2.08,3.992 -3.68,5.594 -3.42,3.414 -8.2,5.148 -14.19,5.148 -7.05,0 -11.4,-2.879 -13.8,-5.281 -2.42,-2.41 -5.29,-6.762 -5.29,-13.813 V 305.395 c 0,-5.891 1.82,-10.622 5.39,-14.04 3.49,-3.351 8.1,-5.054 13.7,-5.054 6.06,0 10.87,1.82 14.31,5.41 3.35,3.492 5.04,8.098 5.04,13.684 v 76.632 c 0,6.164 1.78,11.2 5.45,15.387 3.9,4.453 9.16,7.535 16.1,9.414 7.25,1.961 15.71,2.168 25.33,0.594 2.86,-0.402 5.6,-0.555 8.11,-0.453 3.55,0.144 6.74,1.226 9.48,3.211 3.12,2.25 5.16,5.664 5.94,9.668"/><path id="path30" style="fill:#213363;fill-opacity:1;fill-rule:nonzero;stroke:none" d="m 1449.01,321.379 c -7.73,0 -14.57,1.824 -20.9,5.582 -6.36,3.766 -11.2,8.801 -14.83,15.391 -3.61,6.554 -5.44,14.14 -5.44,22.531 0,8.379 1.82,15.906 5.42,22.375 3.63,6.515 8.49,11.515 14.85,15.285 6.34,3.758 13.17,5.59 20.9,5.59 8.04,0 14.94,-1.817 21.09,-5.551 6.21,-3.766 11,-8.781 14.64,-15.324 3.61,-6.473 5.44,-14 5.44,-22.375 0,-8.391 -1.84,-15.973 -5.45,-22.531 -3.64,-6.614 -8.43,-11.661 -14.63,-15.426 -6.15,-3.735 -13.05,-5.547 -21.09,-5.547 z m 73.7,177.297 c -7.13,6.847 -20.32,7.058 -27.66,0 -3.7,-3.555 -5.65,-8.41 -5.65,-14.043 v -55.078 c -3.55,2.687 -7.38,5.07 -11.47,7.136 -9.93,5.012 -20.97,7.551 -32.82,7.551 -14.32,0 -27.34,-3.558 -38.71,-10.586 -11.28,-6.988 -20.28,-16.566 -26.76,-28.476 -6.46,-11.875 -9.74,-25.43 -9.74,-40.297 0,-14.938 3.53,-28.598 10.48,-40.598 6.95,-11.984 16.5,-21.59 28.4,-28.531 11.91,-6.961 25.44,-10.488 40.23,-10.488 14.76,0 28.28,3.476 40.19,10.339 11.91,6.868 21.48,16.426 28.43,28.418 6.93,11.973 10.55,25.516 10.74,40.34 v 120.27 c 0,5.625 -1.96,10.476 -5.66,14.043"/></g></g></svg>