<?xml version="1.0" encoding="UTF-8"?>
<svg id="Layer_2" data-name="Layer 2" xmlns="http://www.w3.org/2000/svg" viewBox="0 0 270.58 93.4">
  <defs>
    <style>
      .cls-1 {
        fill: #260a36;
      }

      .cls-1, .cls-2, .cls-3 {
        stroke-width: 0px;
      }

      .cls-2 {
        fill: #fff;
      }

      .cls-3 {
        fill: #ff0074;
      }
    </style>
  </defs>
  <g id="Layer_1-2" data-name="Layer 1">
    <g>
      <path class="cls-1" d="m261.72,93.36c-57.78.45-115.33-2.75-172.31-9.53,3.05-27.94,6.02-55.88,8.91-83.83,51.57,6.44,103.68,9.77,156.05,9.9,2.4,27.82,4.85,55.64,7.34,83.45Z"/>
      <g>
        <path class="cls-1" d="m41.39,24.94c0,10.99-8.81,17.86-18.67,17.86S5.28,35.32,5.28,25.27,11.96,6.37,23.33,6.37s18.05,8.95,18.05,18.57Zm-10.99.43c0-3.7-2.42-7.63-6.96-7.63s-7.58,3.36-7.58,8.29c0,3.98,2.42,7.86,7.63,7.86,4.22,0,6.92-3.51,6.92-8.53Z"/>
        <path class="cls-1" d="m71.47,37.92c.14,3.79-.76,4.6-5.4,4.6-3.84,0-4.74-1-4.79-4.83l-.09-7.72-5.88.57-.19,8.2c-.09,3.79-1.09,4.64-4.98,4.36-3.84-.28-4.79-1.28-4.83-5.12l-.38-24.59c-.05-3.84.81-4.69,4.64-4.97l1.23-.1c3.79-.28,4.74.71,4.64,4.5l-.24,9.9,5.92-.14-.09-9.52c-.05-3.74.85-4.74,4.6-5.02,3.79-.33,4.79.52,4.93,4.22l.9,25.68Z"/>
        <path class="cls-1" d="m44.28,77.57c.38,3.74-.52,4.69-4.26,4.6-6.21-.19-7.11-.66-7.39-4.97l-1.09-16.58-6.68,18.1c-.76,1.99-1.37,2.37-3.55,2.23-2.13-.09-2.75-.57-3.46-2.61l-5.92-17.29-1.04,16.2c-.24,3.79-1.28,4.55-6.78,3.65-3.79-.62-4.55-1.66-3.88-5.45l4.17-24.97c.66-3.79,1.71-4.55,5.54-4.31l2.18.14c3.88.24,5.02,1.18,6.35,4.83l4.45,12.18,4.69-11.23c1.52-3.55,2.7-4.45,6.59-4.55l2.42-.05c3.84-.09,4.83.71,5.21,4.55l2.46,25.54Z"/>
        <path class="cls-1" d="m68.15,78.14c.05,3.84-.85,4.93-4.69,5.16l-2.18.14c-3.79.24-4.74-.52-4.79-4.31l-.14-12.41-10.33-13.5c-2.23-2.89-1.85-4.07,1.61-5.26l3.98-1.37c3.65-1.23,4.93-.76,6.82,2.61l5.45,9.71,5.5-9.76c1.8-3.22,3.03-3.7,6.59-2.32,3.36,1.28,3.74,2.46,1.8,5.45l-9.71,14.78.09,11.09Z"/>
      </g>
      <path class="cls-3" d="m270.58,84.58c-57.16,7.05-114.98,9.61-172.93,7.6,2.34-27.79,4.66-55.58,6.98-83.36,53.01,1.5,105.85-1.15,158.05-7.85,2.6,27.87,5.23,55.74,7.91,83.61Z"/>
      <g>
        <path class="cls-2" d="m119.51,69.87c-1.54-.14-1.92-.58-1.97-2.16-.21-10.11-.42-20.22-.63-30.32-.03-2.38.51-2.98,2.84-3.01.98-.02,2,0,2.98.03,14.01.37,24.53,6.02,24.86,17.13.33,11.1-12.48,18.82-26.08,18.43-.65-.02-1.35-.04-2-.1Zm16.89-18.66c-.11-3.72-3.25-7.37-9.21-7.5-.23,0-.51.04-.79.03-.08,5.14-.16,10.29-.24,15.43,6.98.11,10.35-3.96,10.24-7.96Z"/>
        <path class="cls-2" d="m186.04,50.89c.33,11.04-8.13,18.26-17.83,18.41-9.32.16-17.38-7.38-17.68-17.48-.31-10.4,6-18.98,17.19-19.15,11.42-.2,18.03,8.55,18.32,18.22Zm-10.8.74c-.11-3.71-2.61-7.6-7.08-7.53-4.52.08-7.36,3.48-7.21,8.44.12,4,2.62,7.89,7.74,7.8,4.15-.07,6.7-3.66,6.55-8.71Z"/>
        <path class="cls-2" d="m190.91,65.96c-2.61-1.52-2.98-3.08-1.24-5.57.04-.08.09-.16.13-.24,2.1-3.03,2.84-3.3,6.33-1.97,2.22.86,4.38,1.18,6.24,1.09,3.59-.18,6.1-1.89,6.03-4.51-.18-5.94-19.29-.45-19.64-12.02-.27-8.85,8.06-11.43,15.98-11.85,1.49-.08,2.98-.06,4.39,0,3.32.15,4.19,1.09,4.2,4.48-.01,2.76-.41,3.65-2.18,3.75-.61.04-3.51-.42-6.17-.28-2.8.14-5.15.97-5.09,3.06.15,4.91,19.89-3.11,20.37,12.81.27,9.03-7.99,13.59-16.57,14.02-4.62.23-9.31-.76-12.78-2.77Z"/>
        <path class="cls-2" d="m250.06,59.85c.25,3.79-.61,4.69-5.17,5.1-3.77.33-4.68-.59-4.85-4.44-.11-2.58-.22-5.16-.33-7.74-1.92.35-3.84.7-5.76,1.04.02,2.75.04,5.49.06,8.24.02,3.81-.93,4.75-4.76,4.75-3.78,0-4.74-.95-4.91-4.79-.37-8.22-.74-16.43-1.12-24.65-.16-3.85.65-4.76,4.42-5.32.4-.06.81-.12,1.21-.18,3.72-.56,4.68.36,4.7,4.17.02,3.32.04,6.63.07,9.95,1.94-.2,3.88-.41,5.82-.62-.13-3.18-.25-6.36-.38-9.54-.16-3.75.7-4.82,4.37-5.43,3.72-.66,4.72.1,4.97,3.79.55,8.56,1.11,17.11,1.66,25.67Z"/>
      </g>
    </g>
  </g>
</svg>